<svg width="60" height="60" viewBox="0 0 60 60" fill="none" xmlns="http://www.w3.org/2000/svg">
<path fill-rule="evenodd" clip-rule="evenodd" d="M42.2531 31.0126C41.5219 31.7438 40.335 31.7438 39.6019 31.0126L31.875 23.2688L31.875 43.125C31.875 44.1562 31.0369 45 30 45C28.9631 45 28.125 44.1562 28.125 43.125L28.125 23.2688L20.3981 31.0126C19.665 31.7438 18.4762 31.7438 17.7469 31.0126C17.0137 30.2626 17.0137 29.0812 17.7469 28.35L28.3519 17.7374C28.8019 17.2874 29.4169 17.1562 30 17.2687C30.5831 17.1562 31.1981 17.2874 31.6481 17.7374L42.2531 28.35C42.9863 29.0812 42.9863 30.2626 42.2531 31.0126ZM30 0C13.4306 0 0 13.425 0 30C0 46.575 13.4306 60 30 60C46.5694 60 60 46.575 60 30C60 13.425 46.5694 0 30 0Z" fill="#0A0908"/>
</svg>
